<svg width="140" height="43" viewBox="0 0 140 43" fill="none" xmlns="http://www.w3.org/2000/svg">
<path d="M16.3028 15.1248C16.1755 15.3464 16.0323 15.5047 15.8732 15.5997C15.714 15.6946 15.5151 15.7421 15.2764 15.7421C15.0059 15.7421 14.7115 15.663 14.3932 15.5047C14.075 15.3306 13.701 15.1406 13.2714 14.9348C12.8417 14.7291 12.3325 14.547 11.7437 14.3887C11.1709 14.2146 10.4946 14.1276 9.71485 14.1276C9.07833 14.1276 8.49751 14.2067 7.97238 14.365C7.46317 14.5075 7.02556 14.7211 6.65956 15.0061C6.30948 15.2752 6.03896 15.5997 5.848 15.9796C5.65705 16.3436 5.56157 16.7394 5.56157 17.1668C5.56157 17.7366 5.73661 18.2115 6.0867 18.5914C6.43678 18.9713 6.89826 19.3037 7.47112 19.5886C8.04399 19.8577 8.69642 20.1031 9.42841 20.3247C10.1604 20.5463 10.9083 20.7837 11.6721 21.037C12.436 21.2903 13.1839 21.5831 13.9159 21.9155C14.6479 22.2479 15.3003 22.6595 15.8732 23.1502C16.446 23.6251 16.9075 24.2107 17.2576 24.9072C17.6077 25.5879 17.7827 26.4189 17.7827 27.4003C17.7827 28.54 17.5758 29.5927 17.1621 30.5583C16.7484 31.5238 16.1437 32.3628 15.348 33.0751C14.5524 33.7874 13.5578 34.3414 12.3643 34.7372C11.1868 35.1329 9.83419 35.3308 8.30655 35.3308C7.46317 35.3308 6.64365 35.2516 5.848 35.0933C5.06827 34.9509 4.32036 34.753 3.60428 34.4997C2.90411 34.2306 2.24372 33.914 1.62312 33.55C1.01843 33.1859 0.477388 32.7902 0 32.3628L1.19347 30.4158C1.33669 30.1784 1.51173 29.9963 1.7186 29.8697C1.94138 29.7272 2.2119 29.656 2.53016 29.656C2.86433 29.656 3.19054 29.7668 3.5088 29.9884C3.84297 30.1942 4.22488 30.4237 4.65453 30.677C5.10009 30.9302 5.63318 31.1677 6.25378 31.3893C6.87439 31.5951 7.64616 31.698 8.56911 31.698C9.33294 31.698 9.99332 31.6109 10.5503 31.4368C11.1072 31.2468 11.5687 30.9936 11.9347 30.677C12.3007 30.3604 12.5712 30.0042 12.7463 29.6085C12.9213 29.1969 13.0088 28.7616 13.0088 28.3026C13.0088 27.6853 12.8338 27.1787 12.4837 26.783C12.1336 26.3873 11.6642 26.0469 11.0754 25.762C10.5025 25.4771 9.84215 25.2238 9.09424 25.0022C8.36225 24.7806 7.61434 24.5432 6.85052 24.2899C6.0867 24.0366 5.33083 23.7438 4.58292 23.4114C3.85093 23.079 3.19054 22.6595 2.60176 22.153C2.0289 21.6306 1.56742 21.0053 1.21734 20.2772C0.867255 19.5332 0.692213 18.631 0.692213 17.5704C0.692213 16.6048 0.883168 15.6867 1.26508 14.8161C1.6629 13.9455 2.23577 13.1778 2.98368 12.513C3.7475 11.8482 4.6784 11.3258 5.77639 10.9459C6.8903 10.5502 8.17129 10.3523 9.61937 10.3523C11.2584 10.3523 12.7463 10.6135 14.0829 11.1358C15.4196 11.6582 16.5415 12.3705 17.4485 13.2728L16.3028 15.1248Z" fill="#121212"/>
<path d="M38.5741 20.111C38.5741 19.2562 38.4468 18.4648 38.1922 17.7366C37.9535 16.9926 37.5954 16.3516 37.118 15.8134C36.6406 15.2593 36.0439 14.832 35.3278 14.5312C34.6277 14.2146 33.8161 14.0563 32.8932 14.0563C31.0313 14.0563 29.5673 14.5866 28.5012 15.6472C27.435 16.7077 26.7587 18.1957 26.4723 20.111H38.5741ZM26.3291 23.2452C26.3927 24.6223 26.6075 25.8174 26.9735 26.8305C27.3395 27.8277 27.8249 28.6588 28.4296 29.3236C29.0502 29.9884 29.7822 30.487 30.6256 30.8194C31.4849 31.136 32.4396 31.2943 33.4899 31.2943C34.4924 31.2943 35.3597 31.1835 36.0917 30.9619C36.8236 30.7245 37.4602 30.4712 38.0012 30.2021C38.5422 29.9172 39.0037 29.6639 39.3856 29.4423C39.7675 29.2049 40.1176 29.0861 40.4359 29.0861C40.8496 29.0861 41.1679 29.2444 41.3907 29.561L42.8467 31.4368C42.242 32.1491 41.5577 32.7506 40.7939 33.2413C40.0301 33.732 39.2185 34.1357 38.3592 34.4522C37.4999 34.753 36.6168 34.9667 35.7097 35.0933C34.8027 35.2358 33.9195 35.307 33.0602 35.307C31.3735 35.307 29.806 35.03 28.358 34.476C26.9258 33.9061 25.6766 33.0751 24.6105 31.9829C23.5602 30.8907 22.7327 29.5373 22.1281 27.9227C21.5393 26.3081 21.2449 24.4482 21.2449 22.3429C21.2449 20.665 21.5074 19.0979 22.0326 17.6416C22.5736 16.1854 23.3374 14.919 24.324 13.8426C25.3265 12.7662 26.5359 11.9194 27.9522 11.302C29.3843 10.6689 30.9995 10.3523 32.7977 10.3523C34.2935 10.3523 35.6779 10.5976 36.9509 11.0884C38.224 11.5632 39.322 12.2676 40.2449 13.2015C41.1679 14.1355 41.884 15.2831 42.3932 16.6444C42.9183 17.9899 43.1809 19.5253 43.1809 21.2507C43.1809 22.0422 43.0933 22.5724 42.9183 22.8415C42.7433 23.1106 42.425 23.2452 41.9635 23.2452H26.3291Z" fill="#121212"/>
<path d="M68.4944 10.7322V34.9509H65.3913C64.7071 34.9509 64.2695 34.6264 64.0785 33.9774L63.6966 31.7217C63.1874 32.2599 62.6464 32.7506 62.0735 33.1938C61.5165 33.637 60.9198 34.0169 60.2833 34.3335C59.6468 34.6501 58.9625 34.8955 58.2305 35.0696C57.5144 35.2437 56.7427 35.3308 55.9152 35.3308C54.5785 35.3308 53.4009 35.1091 52.3825 34.6659C51.3641 34.2227 50.5048 33.5975 49.8046 32.7902C49.1204 31.9829 48.6032 31.0173 48.2531 29.8934C47.903 28.7537 47.728 27.5032 47.728 26.1419V10.7322H52.8599V26.1419C52.8599 27.7723 53.2339 29.0387 53.9818 29.9409C54.7456 30.8432 55.8993 31.2943 57.4428 31.2943C58.5726 31.2943 59.6229 31.041 60.5936 30.5345C61.5802 30.0121 62.5031 29.2998 63.3624 28.3976V10.7322H68.4944Z" fill="#121212"/>
<path d="M73.9388 32.0066C73.9388 31.5476 74.0184 31.1202 74.1775 30.7245C74.3526 30.3129 74.5833 29.9567 74.8697 29.656C75.1721 29.3552 75.5222 29.1178 75.92 28.9437C76.3337 28.7696 76.7713 28.6825 77.2328 28.6825C77.6943 28.6825 78.1239 28.7696 78.5217 28.9437C78.9355 29.1178 79.2935 29.3552 79.5959 29.656C79.8982 29.9567 80.1369 30.3129 80.3119 30.7245C80.487 31.1202 80.5745 31.5476 80.5745 32.0066C80.5745 32.4815 80.487 32.9168 80.3119 33.3125C80.1369 33.7083 79.8982 34.0565 79.5959 34.3573C79.2935 34.658 78.9355 34.8875 78.5217 35.0458C78.1239 35.22 77.6943 35.307 77.2328 35.307C76.7713 35.307 76.3337 35.22 75.92 35.0458C75.5222 34.8875 75.1721 34.658 74.8697 34.3573C74.5833 34.0565 74.3526 33.7083 74.1775 33.3125C74.0184 32.9168 73.9388 32.4815 73.9388 32.0066Z" fill="#121212"/>
<path d="M91.1404 28.8724C91.8565 29.7905 92.6363 30.4395 93.4797 30.8194C94.339 31.1835 95.2858 31.3655 96.3201 31.3655C98.3251 31.3655 99.8846 30.6374 100.999 29.1811C102.128 27.7248 102.693 25.5562 102.693 22.6753C102.693 21.1874 102.566 19.921 102.311 18.8763C102.057 17.8158 101.691 16.9531 101.213 16.2882C100.736 15.6234 100.155 15.1406 99.4709 14.8399C98.7866 14.5391 98.0148 14.3887 97.1555 14.3887C95.8507 14.3887 94.7209 14.6737 93.7661 15.2435C92.8272 15.7975 91.952 16.5969 91.1404 17.6416V28.8724ZM90.8779 14.2463C91.8963 13.0591 93.05 12.1014 94.339 11.3733C95.6438 10.6451 97.1555 10.2811 98.8741 10.2811C100.243 10.2811 101.484 10.5581 102.598 11.1121C103.712 11.6503 104.666 12.4417 105.462 13.4865C106.258 14.5312 106.87 15.8292 107.3 17.3805C107.746 18.9159 107.968 20.6808 107.968 22.6753C107.968 24.464 107.722 26.134 107.228 27.6853C106.751 29.2207 106.059 30.5583 105.152 31.698C104.245 32.8218 103.147 33.7083 101.858 34.3573C100.569 34.9904 99.1128 35.307 97.4897 35.307C96.0575 35.307 94.8402 35.0775 93.8377 34.6184C92.8511 34.1594 91.952 33.5262 91.1404 32.7189V43H86.0085V10.7322H89.1116C89.8117 10.7322 90.2573 11.0567 90.4482 11.7057L90.8779 14.2463Z" fill="#121212"/>
<path d="M127.491 15.1248C127.364 15.3464 127.221 15.5047 127.062 15.5997C126.903 15.6946 126.704 15.7421 126.465 15.7421C126.194 15.7421 125.9 15.663 125.582 15.5047C125.263 15.3306 124.89 15.1406 124.46 14.9348C124.03 14.7291 123.521 14.547 122.932 14.3887C122.359 14.2146 121.683 14.1276 120.903 14.1276C120.267 14.1276 119.686 14.2067 119.161 14.365C118.652 14.5075 118.214 14.7211 117.848 15.0061C117.498 15.2752 117.227 15.5997 117.037 15.9796C116.846 16.3436 116.75 16.7394 116.75 17.1668C116.75 17.7366 116.925 18.2115 117.275 18.5914C117.625 18.9713 118.087 19.3037 118.66 19.5886C119.232 19.8577 119.885 20.1031 120.617 20.3247C121.349 20.5463 122.097 20.7837 122.861 21.037C123.624 21.2903 124.372 21.5831 125.104 21.9155C125.836 22.2479 126.489 22.6595 127.062 23.1502C127.635 23.6251 128.096 24.2107 128.446 24.9072C128.796 25.5879 128.971 26.4189 128.971 27.4003C128.971 28.54 128.764 29.5927 128.351 30.5583C127.937 31.5238 127.332 32.3628 126.537 33.0751C125.741 33.7874 124.746 34.3414 123.553 34.7372C122.375 35.1329 121.023 35.3308 119.495 35.3308C118.652 35.3308 117.832 35.2516 117.037 35.0933C116.257 34.9509 115.509 34.753 114.793 34.4997C114.093 34.2306 113.432 33.914 112.812 33.55C112.207 33.1859 111.666 32.7902 111.189 32.3628L112.382 30.4158C112.525 30.1784 112.7 29.9963 112.907 29.8697C113.13 29.7272 113.4 29.656 113.719 29.656C114.053 29.656 114.379 29.7668 114.697 29.9884C115.031 30.1942 115.413 30.4237 115.843 30.677C116.289 30.9302 116.822 31.1677 117.442 31.3893C118.063 31.5951 118.835 31.698 119.758 31.698C120.521 31.698 121.182 31.6109 121.739 31.4368C122.296 31.2468 122.757 30.9936 123.123 30.677C123.489 30.3604 123.76 30.0042 123.935 29.6085C124.11 29.1969 124.197 28.7616 124.197 28.3026C124.197 27.6853 124.022 27.1787 123.672 26.783C123.322 26.3873 122.853 26.0469 122.264 25.762C121.691 25.4771 121.031 25.2238 120.283 25.0022C119.551 24.7806 118.803 24.5432 118.039 24.2899C117.275 24.0366 116.519 23.7438 115.771 23.4114C115.039 23.079 114.379 22.6595 113.79 22.153C113.217 21.6306 112.756 21.0053 112.406 20.2772C112.056 19.5332 111.881 18.631 111.881 17.5704C111.881 16.6048 112.072 15.6867 112.454 14.8161C112.851 13.9455 113.424 13.1778 114.172 12.513C114.936 11.8482 115.867 11.3258 116.965 10.9459C118.079 10.5502 119.36 10.3523 120.808 10.3523C122.447 10.3523 123.935 10.6135 125.271 11.1358C126.608 11.6582 127.73 12.3705 128.637 13.2728L127.491 15.1248Z" fill="#121212"/>
<path d="M139.141 10.7322V34.9509H134.009V10.7322H139.141ZM140 3.41911C140 3.87815 139.905 4.31346 139.714 4.72502C139.539 5.13657 139.292 5.50064 138.974 5.81723C138.655 6.11798 138.281 6.36334 137.852 6.55329C137.438 6.72741 136.992 6.81447 136.515 6.81447C136.054 6.81447 135.616 6.72741 135.202 6.55329C134.804 6.36334 134.454 6.11798 134.152 5.81723C133.85 5.50064 133.603 5.13657 133.412 4.72502C133.237 4.31346 133.149 3.87815 133.149 3.41911C133.149 2.94423 133.237 2.50101 133.412 2.08945C133.603 1.6779 133.85 1.32174 134.152 1.02099C134.454 0.7044 134.804 0.459047 135.202 0.284927C135.616 0.0949758 136.054 0 136.515 0C136.992 0 137.438 0.0949758 137.852 0.284927C138.281 0.459047 138.655 0.7044 138.974 1.02099C139.292 1.32174 139.539 1.6779 139.714 2.08945C139.905 2.50101 140 2.94423 140 3.41911Z" fill="#121212"/>
</svg>
